HIERARCHY
ROOT Hips
{
 OFFSET 0.000000 0.000000 0.000000
 CHANNELS 6 Xposition Yposition Zposition Yrotation Xrotation Zrotation
 JOINT Chest
 {
  OFFSET 0.000000 9.585900 0.002600
  CHANNELS 3 Yrotation Xrotation Zrotation
  JOINT Chest2
  {
   OFFSET 0.000000 9.601200 -0.005300
   CHANNELS 3 Yrotation Xrotation Zrotation
   JOINT Chest3
   {
    OFFSET 0.000000 9.561800 0.000000
    CHANNELS 3 Yrotation Xrotation Zrotation
    JOINT Chest4
    {
     OFFSET 0.000000 9.552100 0.000000
     CHANNELS 3 Yrotation Xrotation Zrotation
     JOINT Neck
     {
      OFFSET 0.000000 14.453000 0.000000
      CHANNELS 3 Yrotation Xrotation Zrotation
      JOINT Head
      {
       OFFSET 0.000000 8.936500 -0.011300
       CHANNELS 3 Yrotation Xrotation Zrotation
       End Site
       {
        OFFSET 0.000000 17.073600 -0.006000
       }
      }
     }
     JOINT RightCollar
     {
      OFFSET -2.921100 9.558500 0.000000
      CHANNELS 3 Yrotation Xrotation Zrotation
      JOINT RightShoulder
      {
       OFFSET -13.519700 0.000000 0.000000
       CHANNELS 3 Yrotation Xrotation Zrotation
       JOINT RightElbow
       {
        OFFSET 0.000000 -29.696600 0.000000
        CHANNELS 3 Yrotation Xrotation Zrotation
        JOINT RightWrist
        {
         OFFSET 0.000000 -24.004700 0.000000
         CHANNELS 3 Yrotation Xrotation Zrotation
         End Site
         {
          OFFSET 0.000000 -17.728500 0.000000
         }
        }
       }
      }
     }
     JOINT LeftCollar
     {
      OFFSET 2.921100 9.558500 0.000000
      CHANNELS 3 Yrotation Xrotation Zrotation
      JOINT LeftShoulder
      {
       OFFSET 13.519700 0.000000 0.000000
       CHANNELS 3 Yrotation Xrotation Zrotation
       JOINT LeftElbow
       {
        OFFSET 0.000000 -29.696600 0.000000
        CHANNELS 3 Yrotation Xrotation Zrotation
        JOINT LeftWrist
        {
         OFFSET 0.000000 -24.004700 0.000000
         CHANNELS 3 Yrotation Xrotation Zrotation
         End Site
         {
          OFFSET 0.000000 -17.728500 0.000000
         }
        }
       }
      }
     }
    }
   }
  }
 }
 JOINT RightHip
 {
  OFFSET -7.771700 -0.012900 -0.001300
  CHANNELS 3 Yrotation Xrotation Zrotation
  JOINT RightKnee
  {
   OFFSET 0.000000 -40.869800 0.001200
   CHANNELS 3 Yrotation Xrotation Zrotation
   JOINT RightAnkle
   {
    OFFSET 0.000000 -39.717900 0.002100
    CHANNELS 3 Yrotation Xrotation Zrotation
    JOINT RightToe
    {
     OFFSET 0.000000 -4.965400 11.033500
     CHANNELS 3 Yrotation Xrotation Zrotation
     End Site
     {
      OFFSET 0.000000 -1.423100 5.872300
     }
    }
   }
  }
 }
 JOINT LeftHip
 {
  OFFSET 7.771700 -0.012900 -0.001300
  CHANNELS 3 Yrotation Xrotation Zrotation
  JOINT LeftKnee
  {
   OFFSET 0.000000 -40.869800 0.001200
   CHANNELS 3 Yrotation Xrotation Zrotation
   JOINT LeftAnkle
   {
    OFFSET 0.000000 -39.717900 0.002100
    CHANNELS 3 Yrotation Xrotation Zrotation
    JOINT LeftToe
    {
     OFFSET 0.000000 -4.965400 11.033500
     CHANNELS 3 Yrotation Xrotation Zrotation
     End Site
     {
      OFFSET 0.000000 -1.423100 5.872300
     }
    }
   }
  }
 }
}
MOTION
Frames: 12
Frame Time: 0.008333
11.413806 48.683995 50.126133 172.774889 -35.760980 -6.940094 7.399849 19.710754 6.281217 0.827373 2.675762 0.702346 1.426944 4.362039 1.147524 6.107737 16.782905 5.225145 -2.249330 17.659895 2.308435 -4.859458 -2.910093 4.972745 -3.494266 -2.517472 -4.772113 1.715568 -1.449346 1.513295 121.257910 -83.617421 -129.911751 -1.275059 -4.928910 10.509791 -8.468099 -1.373660 1.499804 1.365027 -2.906012 -2.216840 -129.398932 -76.497817 135.399403 17.749932 -3.323126 -8.386422 6.286600 -49.200142 9.029473 -88.416180 82.371676 -76.840160 -5.035971 -3.066440 -2.434425 0.000209 -0.974731 0.155334 -9.206214 -49.072139 15.383392 -151.856231 80.070419 -158.400898 2.276794 -16.863419 7.280178 0.043861 0.065895 0.058101
11.401987 48.693935 50.142623 172.735739 -35.781049 -6.919660 7.371196 19.720563 6.276130 0.860612 2.681780 0.697748 1.419875 4.363079 1.158248 6.152034 16.787255 5.222035 -2.239997 17.641929 2.296546 -4.864817 -2.915526 4.966620 -3.504384 -2.538904 -4.770236 1.709030 -1.421712 1.505052 121.200780 -83.557710 -129.889336 -1.292617 -4.888858 10.591174 -8.462478 -1.387668 1.482823 1.334407 -2.890877 -2.193546 -128.964443 -76.560276 134.968849 17.741674 -3.426831 -8.411087 6.165503 -48.923426 9.105393 -90.937794 82.345999 -79.431429 -5.205422 -3.523137 -2.232884 -0.000460 -0.886251 0.018948 -9.151137 -49.049314 15.356936 -151.886215 80.097824 -158.419608 2.261646 -16.850706 7.280393 0.026915 0.058592 0.051035
11.386216 48.703329 50.158995 172.695674 -35.795830 -6.870407 7.360774 19.727871 6.244489 0.864927 2.683112 0.698244 1.426884 4.364991 1.159125 6.189713 16.776526 5.242014 -2.239497 17.638431 2.276618 -4.867641 -2.919123 4.958473 -3.513862 -2.556394 -4.775213 1.697542 -1.385703 1.510102 120.930570 -83.501945 -129.622370 -1.216866 -4.868792 10.672567 -8.462180 -1.387807 1.452751 1.299487 -2.869508 -2.170670 -128.466612 -76.620328 134.493429 17.701431 -3.481230 -8.493020 6.098884 -48.649904 9.120134 -93.218112 82.336542 -81.791489 -5.319294 -3.986241 -1.894465 0.012855 -0.794003 -0.187197 -9.064762 -49.033897 15.288367 -151.930046 80.136871 -158.447656 2.217034 -16.836899 7.275063 0.035372 0.050393 0.047740
11.369267 48.710033 50.178815 172.613345 -35.784799 -6.785625 7.393351 19.710501 6.199785 0.849779 2.679455 0.698549 1.447173 4.370006 1.158532 6.198887 16.766024 5.246013 -2.217275 17.636640 2.274666 -4.799205 -2.959951 4.933742 -3.504956 -2.579998 -4.759686 1.686295 -1.356533 1.513670 120.538447 -83.452313 -129.226717 -1.181450 -4.862213 10.708023 -8.424059 -1.395131 1.432357 1.249327 -2.834056 -2.141845 -127.922057 -76.678103 133.974476 17.627139 -3.478047 -8.628317 6.110395 -48.410344 9.096008 -95.246770 82.348111 -83.887135 -5.507682 -4.467003 -1.396464 -0.025683 -0.688320 -0.474296 -8.926874 -49.048852 15.192260 -152.064528 80.192804 -158.547964 2.164958 -16.814247 7.263676 0.064646 0.055552 0.052046
11.347659 48.717321 50.195927 172.473423 -35.787413 -6.629317 7.459398 19.706957 6.114654 0.831248 2.677588 0.695708 1.470699 4.372246 1.160527 6.200256 16.751045 5.246263 -2.193868 17.639032 2.271704 -4.771319 -2.964090 4.921462 -3.501584 -2.642388 -4.702372 1.688905 -1.299515 1.474785 120.147106 -83.432534 -128.823531 -1.097361 -4.859920 10.739691 -8.369766 -1.403543 1.398022 1.200376 -2.784253 -2.096306 -127.374070 -76.739101 133.445661 17.523828 -3.422254 -8.800416 6.234249 -48.164683 9.008861 -96.997204 82.383154 -85.681100 -5.823066 -4.907232 -0.766120 -0.137479 -0.619171 -0.818326 -8.705001 -49.060554 15.048934 -152.132260 80.229046 -158.599603 2.126143 -16.777341 7.251985 0.099189 0.032485 0.067980
11.340078 48.724744 50.217046 172.375035 -35.772099 -6.574877 7.495457 19.681200 6.098239 0.827084 2.678997 0.694933 1.483291 4.365622 1.161174 6.205280 16.739871 5.246517 -2.163205 17.617615 2.267696 -4.762004 -2.929394 4.909613 -3.485947 -2.638939 -4.693116 1.688409 -1.322338 1.489038 119.605373 -83.416204 -128.270021 -1.035229 -4.842993 10.765999 -8.335809 -1.387824 1.377914 1.199235 -2.746190 -2.065958 -126.891969 -76.812705 132.969795 17.402620 -3.324436 -8.983144 6.258807 -47.938375 9.004567 -98.508840 82.467908 -87.239273 -5.829189 -5.283637 -0.177572 -0.139729 -0.588200 -1.084551 -8.604398 -49.078908 15.026915 -152.159512 80.255609 -158.605279 2.123807 -16.769144 7.247133 0.108527 0.018610 0.062627
11.342367 48.733986 50.238105 172.316464 -35.762965 -6.592375 7.472806 19.670320 6.116472 0.874038 2.674990 0.697647 1.454185 4.354682 1.158283 6.229380 16.730880 5.248817 -2.139726 17.614972 2.254357 -4.703592 -2.942319 4.873156 -3.458320 -2.632877 -4.688359 1.710410 -1.394947 1.513604 118.588160 -83.407688 -127.262942 -1.023506 -4.805017 10.792690 -8.293372 -1.378712 1.344383 1.220776 -2.691059 -2.025894 -126.549139 -76.911300 132.610014 17.276383 -3.198192 -9.136055 6.229048 -47.706943 9.037143 -99.800126 82.592467 -88.576684 -5.485531 -5.551142 0.296263 -0.007062 -0.621142 -1.225216 -8.607862 -49.084509 15.096389 -152.219684 80.281854 -158.641526 2.091094 -16.749844 7.229345 0.119821 0.012710 0.067947
11.347550 48.741670 50.261259 172.298174 -35.734447 -6.641694 7.453049 19.638374 6.155347 0.873933 2.670708 0.696811 1.478675 4.353679 1.159511 6.204786 16.713725 5.250463 -2.107307 17.625231 2.237015 -4.650033 -2.987648 4.826263 -3.484712 -2.682930 -4.627921 1.796336 -1.406924 1.477873 117.738335 -83.422579 -126.416865 -1.002514 -4.755517 10.826767 -8.257967 -1.367176 1.311403 1.274220 -2.627965 -1.984466 -126.385343 -77.044535 132.399642 17.159970 -3.068577 -9.226512 6.197810 -47.497894 9.053922 -100.879710 82.734809 -89.669847 -5.127801 -5.776599 0.724451 0.097388 -0.649870 -1.308402 -8.659425 -49.108330 15.180853 -152.277557 80.320487 -158.671932 2.081097 -16.722560 7.208625 0.115048 0.016954 0.067810
11.352009 48.752311 50.278244 172.287893 -35.744539 -6.675640 7.427039 19.646821 6.178070 0.860636 2.666252 0.695666 1.451449 4.341177 1.158053 6.239867 16.712762 5.250926 -2.072781 17.632318 2.218833 -4.609713 -3.039226 4.773478 -3.469731 -2.686124 -4.618141 1.832058 -1.448457 1.482210 117.122507 -83.430202 -125.799181 -0.992345 -4.722231 10.848393 -8.250894 -1.356989 1.289582 1.369683 -2.553814 -1.947913 -126.402123 -77.213986 132.342854 17.066199 -2.960803 -9.237625 6.213898 -47.255067 9.031091 -101.722514 82.897988 -90.485646 -4.890414 -5.949974 1.139869 0.114450 -0.678174 -1.374001 -8.667965 -49.097230 15.213800 -152.316190 80.344741 -158.682354 2.094224 -16.698935 7.198777 0.107427 0.003084 0.059467
11.361185 48.763529 50.293705 172.289776 -35.766860 -6.733092 7.384467 19.668030 6.215272 0.870672 2.662886 0.696395 1.436539 4.333216 1.156425 6.244774 16.706662 5.250007 -2.039615 17.618038 2.192447 -4.569187 -3.083201 4.711016 -3.462704 -2.700384 -4.604301 1.883209 -1.430167 1.459771 117.196325 -83.443510 -125.887141 -0.946822 -4.625559 10.949917 -8.230573 -1.338538 1.276515 1.458934 -2.479078 -1.917438 -126.583896 -77.415889 132.436505 16.999598 -2.885379 -9.164186 6.224160 -47.005324 9.022313 -102.295510 83.085001 -91.005473 -4.698561 -6.104943 1.530207 0.070106 -0.666933 -1.422667 -8.674214 -49.075310 15.245798 -152.376111 80.363054 -158.697254 2.138030 -16.693636 7.189542 0.069927 -0.008891 0.040249
11.371170 48.772759 50.309262 172.305486 -35.782603 -6.793578 7.337279 19.686956 6.253357 0.868208 2.658897 0.695522 1.432553 4.327148 1.155089 6.268921 16.706571 5.245911 -2.039297 17.586237 2.170147 -4.526826 -3.133330 4.639982 -3.498397 -2.736660 -4.573615 1.891986 -1.480036 1.492866 116.965718 -83.440824 -125.658910 -0.861735 -4.503072 11.136487 -8.246709 -1.326385 1.279396 1.544219 -2.399098 -1.888065 -126.902446 -77.640435 132.669612 16.960367 -2.838367 -9.021676 6.240097 -46.756219 8.988958 -102.565274 83.275906 -91.215084 -4.425575 -6.296723 1.861725 0.062015 -0.579313 -1.430875 -8.713312 -49.058864 15.302643 -152.403963 80.383408 -158.698175 2.151143 -16.674836 7.174259 0.051057 -0.016364 0.038267
11.381092 48.776523 50.328923 172.280697 -35.764896 -6.824042 7.328613 19.670595 6.285897 0.854425 2.658376 0.696951 1.428153 4.320697 1.153500 6.287742 16.702148 5.237921 -2.084412 17.502197 2.130408 -4.446096 -3.141762 4.557540 -3.507914 -2.753194 -4.559460 1.869368 -1.510363 1.530884 116.559462 -83.411653 -125.201918 -0.821582 -4.463909 11.270683 -8.265412 -1.311612 1.287881 1.610342 -2.310775 -1.864016 -127.323037 -77.868710 133.022059 16.945606 -2.808272 -8.842930 6.262055 -46.523593 8.957888 -102.430959 83.459062 -91.036451 -4.054962 -6.677658 2.059479 0.076857 -0.325150 -1.351450 -8.727576 -49.083621 15.366204 -152.518677 80.405988 -158.787212 2.136894 -16.649715 7.166984 0.026375 -0.028205 0.029696
